<?xml version="1.0" encoding="UTF-8"?>
<svg id="_レイヤー_1" data-name="レイヤー_1" xmlns="http://www.w3.org/2000/svg" version="1.1" viewBox="0 0 193.1 66.68">
  <!-- Generator: Adobe Illustrator 29.8.1, SVG Export Plug-In . SVG Version: 2.1.1 Build 2)  -->
  <defs>
    <style>
      .st0, .st1 {
        isolation: isolate;
      }

      .st2 {
        fill: #efe568;
      }

      .st1 {
        fill: #57b9e2;
        mix-blend-mode: multiply;
        opacity: .3;
      }

      .st3 {
        fill: #2ab1cf;
      }
    </style>
  </defs>
  <g class="st0">
    <g id="_レイヤー_11" data-name="_レイヤー_1">
      <g>
        <circle class="st1" cx="33.34" cy="33.34" r="33.34"/>
        <g>
          <g>
            <path class="st3" d="M66.63,35.35c.01-.24.02-.47.03-.71-.04.13-.07.26-.07.41,0,.1.02.2.04.3Z"/>
            <path class="st3" d="M33.72,66.18c-3.01-6.02-8.83-10.66-13.97-14.76-4.25-3.39-8.01-6.39-9.82-9.72.29-.12.57-.23.84-.36.28-.13.54-.26.8-.4,2.72-1.43,4.36-3.22,4.85-5.37.39-1.7,0-3.31-.58-4.6-.13-.28-.26-.55-.4-.8-.16-.28-.31-.55-.47-.78,1.3-.53,2.82-1.06,4.59-1.62,1.33-.42,2.94-1.05,4.8-1.77,6.49-2.53,16.3-6.35,27.91-6.35,4.08,0,8.11.5,12.08,1.45C59.48,8.74,47.44,0,33.36,0,14.94,0,.02,14.93.02,33.34s14.93,33.34,33.34,33.34c.33,0,.66-.02.99-.03-.27-.05-.5-.22-.63-.47ZM9.22,40.05c-.05-.13-.1-.27-.13-.4-1.31-4.73-.5-7.23,4.21-9.53.16.22.32.48.49.76.14.24.28.51.41.79.46,1.02.77,2.25.48,3.5-.37,1.59-1.65,2.97-3.81,4.13-.26.14-.54.27-.81.4-.27.12-.54.24-.83.36h0Z"/>
            <path class="st3" d="M35.21,31.37c-1.67,0-3.02,1.35-3.02,3.02s1.35,3.02,3.02,3.02,3.02-1.35,3.02-3.02-1.35-3.02-3.02-3.02Z"/>
          </g>
          <g>
            <path class="st3" d="M43.92,55.57l-.93,1.12-6.12-5.07,1.71-2.06c.15-.21.36-.36.63-.44.37-.03.72.11,1.04.41l5.14,4.26-.93,1.12-5.08-4.21c-.15-.14-.32-.24-.5-.27-.18-.02-.33.04-.42.18l-.21.26,5.67,4.7ZM46.06,52.99l-5.08-4.21c-.15-.14-.32-.24-.5-.26-.18-.02-.32.03-.41.18l-.21.25-.45-.37.78-.94c.15-.21.36-.35.62-.43.37-.03.72.11,1.04.41l5.14,4.26-.92,1.12h-.01Z"/>
            <path class="st3" d="M48.62,49.9l-.93,1.12-6.12-5.07,1.71-2.06c.15-.21.36-.36.63-.44.37-.03.72.11,1.04.41l5.14,4.26-.93,1.12-5.08-4.21c-.15-.14-.32-.24-.5-.27-.18-.02-.33.04-.42.18l-.21.26s5.67,4.7,5.67,4.7ZM50.75,47.32l-5.08-4.21c-.15-.14-.32-.24-.5-.26-.18-.02-.32.03-.42.18l-.21.25-.45-.37.78-.94c.15-.21.36-.35.62-.43.37-.03.72.11,1.04.41l5.14,4.26-.93,1.12h.01Z"/>
          </g>
        </g>
      </g>
      <g>
        <g>
          <path class="st3" d="M94.93,17.53c-.29.6-.96.89-1.56.6-.56-.22-1.11-.45-1.67-.6-.22,1.05-.44,2.23-.67,3.16-.18.6-.85,1-1.45.78-.62-.18-.96-.85-.78-1.45.22-.93.45-2.12.67-3.23-1.22-.33-2.41-.6-3.45-.71-.18-.07-.33.04-.4.27-.38,2.4-1.22,4.68-2.78,5.57-1.45.89-3.05.89-4.23.04-.94-.67-1.49-1.83-1.49-3.16,0-.33.04-.67.11-1,.27-1.49,1.16-2.72,2.56-3.38,1-.56,2.23-.78,3.5-.85.18,0,.29-.16.33-.33.07-.78.07-1.56.07-2.27v-.33c0-.18-.18-.33-.33-.33h-.89c-.67,0-1.18-.51-1.18-1.18s.51-1.16,1.18-1.16h1.89c.89,0,1.6.67,1.67,1.56v1.67c0,.67,0,1.38-.07,2.23,0,.16.11.33.29.33,1.22.16,2.45.45,3.61.78.07-.29.07-.56.11-.85.11-.6.73-1.05,1.34-.94.67.04,1.07.67,1,1.27-.04.33-.11.78-.22,1.18.85.27,1.63.56,2.23.82.62.22.89.89.62,1.51h-.01ZM83.02,15.9c-.85.11-1.63.29-2.18.56-.71.4-1.16.96-1.34,1.85-.04.16-.04.38-.04.56,0,.56.16.94.49,1.22.45.27,1.07.22,1.74-.18.78-.45,1.27-1.89,1.56-3.67.04-.16-.07-.33-.22-.33h0Z"/>
          <path class="st3" d="M104.67,13.14c-.33,1-.78,2.07-1.38,3.07-.33.56-1.11.67-1.63.27-.49-.45-.6-1.16-.27-1.71.33-.51.6-1.07.82-1.63h-1.56c-.6,0-1.16-.56-1.16-1.16,0-.67.56-1.18,1.16-1.18h2.23c.11-.56.22-1.11.22-1.49.11-.67.67-1.11,1.29-1.11.67,0,1.16.56,1.11,1.16-.07.45-.11.89-.22,1.45h.71c.67,0,1.18.51,1.18,1.18,0,.6-.51,1.16-1.18,1.16h-1.34.02ZM114.69,20.37c-.27.62-1,.85-1.56.56-.11-.04-.16-.04-.22-.11-.16-.04-.33.07-.38.18-.4,1.76-1.18,3.38-2.67,3.99-1.34.56-2.89.45-4.12-.38-1.11-.73-1.78-1.89-1.78-3.12,0-1.56.67-2.78,1.83-3.5.89-.56,2.29-.96,4.52-.45.16,0,.33-.11.33-.29v-.94c0-.62.49-1.18,1.11-1.22.67-.07,1.22.45,1.22,1.11v1.78c-.07.22.04.38.22.45.33.11.67.27.94.38.62.29.85,1,.56,1.56ZM110.08,19.88c-1.89-.45-2.78-.11-3.07.04-.49.33-.71.85-.71,1.56,0,.38.27.89.78,1.16.22.18.93.56,1.89.18.67-.29,1.05-1.27,1.34-2.61.04-.18-.07-.33-.22-.33h0Z"/>
          <path class="st3" d="M131.01,24.21c-2.07.4-6.23.73-7.75-2.23-1.22-2.43.29-5.21,2.23-7.55-.11-.11-.22-.22-.33-.4l-2.72-4.34c-.33-.56-.18-1.27.38-1.6.56-.33,1.22-.18,1.63.38l2.67,4.3c1-1,2.05-1.89,2.78-2.45.49-.4,1.22-.29,1.6.22.4.56.29,1.27-.22,1.67-2.89,2.27-7.06,6.46-5.9,8.73.67,1.38,3.34,1.27,5.08,1,.6-.11,1.22.27,1.38.89.22.67-.22,1.27-.82,1.38h0Z"/>
          <path class="st3" d="M156.39,17.88c-.29.6-.96.89-1.56.6-.56-.22-1.11-.45-1.67-.6-.22,1.05-.44,2.23-.67,3.16-.18.6-.85,1-1.45.78-.62-.18-.96-.85-.78-1.45.22-.93.45-2.12.67-3.23-1.22-.33-2.41-.6-3.45-.71-.18-.07-.33.04-.4.27-.38,2.4-1.22,4.68-2.78,5.57-1.45.89-3.05.89-4.23.04-.93-.67-1.49-1.83-1.49-3.16,0-.33.04-.67.11-1,.27-1.49,1.16-2.72,2.56-3.38,1-.56,2.23-.78,3.5-.85.18,0,.29-.16.33-.33.07-.78.07-1.56.07-2.27v-.33c0-.18-.18-.33-.33-.33h-.89c-.67,0-1.18-.51-1.18-1.18s.51-1.16,1.18-1.16h1.89c.89,0,1.6.67,1.67,1.56v1.67c0,.67,0,1.38-.07,2.23,0,.16.11.33.29.33,1.22.16,2.45.45,3.61.78.07-.29.07-.56.11-.85.11-.6.73-1.05,1.34-.94.67.04,1.07.67,1,1.27-.04.33-.11.78-.22,1.18.85.27,1.63.56,2.23.82.62.22.89.89.62,1.51h0ZM144.48,16.26c-.85.11-1.63.29-2.18.56-.71.4-1.16.96-1.34,1.85-.04.16-.04.38-.04.56,0,.56.16.94.49,1.22.45.27,1.07.22,1.74-.18.78-.45,1.27-1.89,1.56-3.67.04-.16-.07-.33-.22-.33h-.01Z"/>
          <path class="st3" d="M170.41,20.83c.33.73.56,1.45.56,2.29,0,1.31-.49,2.83-1.38,4.5-.33.56-1.07.71-1.63.38-.49-.33-.71-1.05-.38-1.6.78-1.51,1.38-3.23.78-4.45-.73-1.27-2.85-1.71-3.9-1.83-.89-.07-1.51-.78-1.51-1.63l.07-4.9c0-.6.49-1.16,1.16-1.16.62.04,1.18.56,1.18,1.22-.07,1.11-.07,2.89-.07,3.9,0,.22.11.33.29.38,1.49.29,3.79.96,4.83,2.89h0Z"/>
          <path class="st3" d="M181.97,20.19c.33.6.16,1.34-.33,1.71-.51.45-1.29.29-1.63-.27-2.05-3.56-2.23-9.02-2.23-11.47.07-.67.62-1.16,1.22-1.11.67.07,1.22.62,1.18,1.29,0,2.16.16,6.9,1.78,9.84h.01ZM193.1,14.06v4.23c0,.67-.56,1.22-1.22,1.18-.67,0-1.18-.51-1.18-1.18v-4.23c0-.67.56-1.22,1.22-1.22s1.18.56,1.18,1.22Z"/>
          <circle class="st2" cx="113.91" cy="11.07" r="2.73"/>
          <circle class="st2" cx="168.57" cy="10.59" r="2.73"/>
        </g>
        <g>
          <g>
            <g>
              <path class="st3" d="M86.25,43.41l-2.99-1.16c-1.09-.39-2.25.08-2.71,1.16-.39,1.05.19,2.21,1.24,2.6l1.47.58c.27.12.39.39.27.7-.85,2.02-2.6,5.24-5.9,8.92-.78.78-.7,2.09.08,2.87s2.06.78,2.83-.08c4.27-4.73,6.4-9.31,7.37-12.03.47-1.44-.19-2.99-1.67-3.57h0Z"/>
              <path class="st3" d="M92.38,34.18c-1.16,0-2.06.97-2.06,2.06v28.01c0,1.08.95,2.08,2.17,2.01.7-.78,1.2-1.34,1.9-2.13v-27.89c0-1.09-.97-2.06-2.02-2.06h0Z"/>
              <path class="st3" d="M109.66,59.6c-6.69-4.93-8.96-12.79-9.7-17.24-.49,1.51-2.44,1.56-3.78,2.22,1.13,5.24,3.99,13.25,11.35,18.51.89.58,2.13.27,2.72-.58.58-.97.39-2.25-.58-2.91h-.01Z"/>
              <path class="st3" d="M127.41,58.89c-.31,1.05-1.36,1.63-2.44,1.24-.97-.27-1.63-1.36-1.36-2.4.89-3.3,1.16-6.48,1.16-8.53.12-.27-.19-.58-.47-.58h-1.55c-.19,1.09-.5,2.25-.78,3.41-.31,1.05-1.36,1.63-2.44,1.36-.97-.31-1.63-1.36-1.36-2.44.97-3.57,1.36-6.48,1.55-8.34,0,0,0-.08.12-.19h-.78c-1.09,0-1.94-.98-1.94-2.14,0-1.05.85-1.74,1.94-1.74h1.75c-.12-.08-.12-.27-.12-.39v-.85c0-1.09.89-1.94,1.94-1.94s1.94.85,1.94,1.94v.85c0,.12,0,.31-.08.39h3.57c1.09,0,1.94.89,1.94,1.94,0,1.16-.85,1.94-1.94,1.94h-4.46v.39c0,.58-.08,1.16-.19,1.94h2.52c1.55,0,2.83,1.28,2.83,2.83.08,2.6-.12,6.98-1.36,11.33v-.02ZM150.69,56.29c0,1.05-.89,1.94-1.94,1.94h-7.76c-1.86,2.68-4.77,5.51-9.5,7.84-.97.47-2.13.19-2.83-.7-.58-.78-.27-1.94.58-2.33,2.91-1.44,5.04-3.18,6.59-4.81h-3.1c-1.05,0-1.94-.89-1.94-1.94s.89-1.94,1.94-1.94h5.74c.85-1.86,1.24-3.61,1.43-4.77,0-.08,0-.19.12-.39h-1.86c-.27.78-.78,1.47-1.24,2.33-.58.89-1.75,1.09-2.64.5-.85-.7-1.16-1.86-.58-2.72,1.28-2.06,2.06-3.8,2.52-5.04.31-.97,1.36-1.67,2.44-1.47,1.05.19,1.75,1.28,1.36,2.25,0,.08-.12.19-.12.27h5.82c1.09,0,1.94.89,1.94,1.94s-.85,1.94-1.94,1.94h-1.82v.31c0,1.16-.31,2.91-.97,4.85h5.82c1.05,0,1.94.85,1.94,1.94ZM132.26,40.27c1.05-2.02,1.75-3.76,2.13-4.93.39-1.09,1.44-1.67,2.52-1.36.97.19,1.63,1.24,1.24,2.33,0,.08-.08.27-.19.39h9.04c1.05,0,1.94.85,1.94,1.94s-.89,1.94-1.94,1.94h-10.59c-.27.47-.47,1.05-.85,1.63-.5.97-1.67,1.28-2.52.78-.97-.58-1.36-1.75-.78-2.72Z"/>
              <path class="st3" d="M160.77,44.8c-.97-.58-1.28-1.75-.78-2.72l1.82-3.42c.58-.97,1.75-1.28,2.72-.78.89.58,1.28,1.75.7,2.72l-1.86,3.1c-.58.97-1.75,1.55-2.6,1.09h0ZM171.9,62.48c.19.97-.47,1.86-1.44,2.06-.89.19-1.86-.39-2.06-1.36v-.12h-.08l-4.85.89c-1.36.27-2.64-.46-2.64-1.94v-13.73c0-1.47,1.16-3.03,2.72-3.03h1.16c-.08-.7.31-1.28.89-1.55l.97-.39c.66-.31,1.55.08,1.82.78.19.39.12.78,0,1.16h.58c1.55,0,2.71,1.24,2.71,2.72v6.01c0,1.44-1.16,2.72-2.71,2.72h-4.66v3.06c0,.31.19.5.51.39.97-.19,2.02-.39,2.91-.47,0-.89.58-1.75,1.44-1.94.97-.12,1.86.47,2.06,1.44l.66,3.3h0ZM164.34,49.33v.39h1.28c.58,0,1.16.47,1.16,1.16,0,.58-.58,1.16-1.16,1.16h-1.28v.58c0,.27.19.58.51.58h2.79c.39,0,.58-.31.58-.58v-3.3c0-.31-.19-.58-.58-.58h-2.79c-.31,0-.51.27-.51.58h0ZM173.84,41.84c.78.78.89,2.06.12,2.83-.7.78-1.94.85-2.72.08-2.52-2.6-4.46-5.12-5.43-6.67-.58-.89-.31-2.13.58-2.64.97-.47,2.13-.19,2.79.7.89,1.44,2.52,3.57,4.65,5.7h.01ZM192.85,38.16v3.41c0,1.05-.85,1.94-1.94,1.94s-1.94-.89-1.94-1.94v-1.75c0-.31-.19-.5-.47-.5h-9.62c-.27,0-.47.19-.47.5v.78c0,1.05-.89,1.94-1.94,1.94s-1.94-.89-1.94-1.94v-2.44c0-1.55,1.16-2.72,2.72-2.72h4.46c-.12-.27-.19-.58-.19-.97v-.27c0-1.16.85-1.94,1.94-1.94s1.94.78,1.94,1.94v.27c0,.39-.12.7-.19.97h4.93c1.55,0,2.71,1.16,2.71,2.72ZM190.33,57.83v5.74c0,1.44-1.16,2.72-2.71,2.72h-8.22c-1.55,0-2.72-1.28-2.72-2.72v-18.89c0-1.47,1.16-2.72,2.72-2.72h5.43c1.44,0,2.72,1.24,2.72,2.72v4.54c0,1.55-1.28,2.72-2.72,2.72h-3.8c-.27,0-.47.31-.47.58v2.06c0,.27.19.58.47.58h6.6c1.55,0,2.71,1.16,2.71,2.68h0ZM180.55,47.59c0,.27.19.47.47.47h2.06c.27,0,.58-.19.58-.47v-1.16c0-.31-.31-.58-.58-.58h-2.06c-.27,0-.47.27-.47.58v1.16ZM186.45,59.49c0-.31-.19-.5-.47-.5h-4.97c-.27,0-.47.19-.47.5v2.33c0,.27.19.58.47.58h4.97c.27,0,.47-.31.47-.58,0,0,0-2.33,0-2.33Z"/>
            </g>
            <circle class="st2" cx="99.98" cy="43.59" r="3.92"/>
            <circle class="st2" cx="122.64" cy="35.34" r="3.92"/>
            <path class="st2" d="M187.42,32.26c0,2.17-1.76,3.92-3.92,3.92s-3.92-1.76-3.92-3.92,1.76-3.61,3.92-3.61,3.92,1.44,3.92,3.61Z"/>
            <path class="st2" d="M140.52,58.34s3.44-.69,6.59,1.33c2.57,1.65,4.39,4.22,3.69,6.45,0,0-2.11.99-6.85-2.09-.18-.11-2.49-1.27-4.12-4.48,0,0-2.08.13-2.62-.19s-.33-.68.04-.89c.37-.22,1.17-.31,1.2-1.22,0-.39-.2-1.65.47-1.61.41.03.78.63.93.95.18.38.33.77.47,1.16.02.06.24.53.2.58h0Z"/>
          </g>
          <circle class="st3" cx="92.36" cy="64.25" r="2.04"/>
          <circle class="st3" cx="166.73" cy="44.99" r="2.04"/>
        </g>
      </g>
    </g>
  </g>
</svg>