<?xml version="1.0" encoding="utf-8"?>
<!-- Generator: Adobe Illustrator 16.0.0, SVG Export Plug-In . SVG Version: 6.00 Build 0)  -->
<!DOCTYPE svg PUBLIC "-//W3C//DTD SVG 1.1//EN" "http://www.w3.org/Graphics/SVG/1.1/DTD/svg11.dtd">
<svg version="1.1" id="レイヤー_1" xmlns="http://www.w3.org/2000/svg" xmlns:xlink="http://www.w3.org/1999/xlink" x="0px"
	 y="0px" width="588.86px" height="597.829px" viewBox="0 0 588.86 597.829" enable-background="new 0 0 588.86 597.829"
	 xml:space="preserve">
<g>
	<path fill="#303E79" d="M291.558,329.459c-2.174,15.879-3.9,28.545-5.648,41.207c-0.369,2.672-0.547,5.414-1.3,7.98
		c-1.25,4.258-8.084,5.869-11.89,3.127c-4.774-3.44-7.319-7.959-6.838-13.874c0.77-9.447,1.709-18.882,2.572-28.322
		c0.852-9.322,1.694-18.646,2.783-30.628c-5.08,2.708-8.203,3.673-10.391,5.665c-7.508,6.84-14.625,14.106-22.02,21.074
		c-3.93,3.702-7.876,7.473-12.262,10.582c-5.537,3.927-10.207,3.069-14.344-1.782c-3.254-3.816-3.326-8.359,0.981-12.747
		c9.015-9.184,18.48-17.923,27.715-26.893c4.737-4.603,10.124-8.799,11.377-15.279c-2.29-4.69-6.017-4.065-9.208-4.228
		c-8.801-0.446-17.638-0.357-26.418-1.026c-3.912-0.299-7.91-1.475-11.533-3.034c-4.709-2.027-5.199-8.731-0.713-11.564
		c3.275-2.068,7.253-3.78,11.053-4.114c9.396-0.828,18.872-0.774,29.768-1.12c-1.066-4.559-1.176-8.588-2.891-11.742
		c-8.09-14.872-16.672-29.477-24.949-44.248c-1.621-2.894-2.926-6.028-3.909-9.196c-0.843-2.712,3.431-6.868,6.271-6.423
		c6.449,1.01,11.161,4.533,14.553,10.022c6.051,9.796,12.188,19.539,18.216,29.35c6.024,9.806,11.881,19.717,18.021,29.448
		c0.921,1.459,2.993,2.19,5.097,3.648c4.585-5.534,2.88-11.919,4.061-17.529c1.115-5.298,1.94-10.668,2.65-16.038
		c1.422-10.742,2.604-21.517,4.033-32.258c0.757-5.696,4.52-9.389,8.844-9.095c4.361,0.297,9.203,4.444,9.467,9.126
		c0.261,4.66-0.256,9.412-0.89,14.062c-0.981,7.222-1.659,14.353,0.017,21.628c7.678,0.403,9.865-5.769,14.25-8.398
		c4.008-2.404,7.73-5.446,11.99-7.22c4.117-1.715,8.021,0.328,10.688,3.719c3.053,3.884,1.691,7.75-1.295,10.957
		c-7.388,7.93-15.045,15.61-22.376,23.591c-2.097,2.283-3.45,5.249-6.039,9.302c10.406,2.763,19.071,1.719,27.587,1.443
		c9.477-0.307,18.926-1.445,28.402-1.802c8.414-0.316,16.117,1.709,21.879,8.563c2.859,3.401,1.65,8.424-2.669,9.806
		c-2.555,0.817-5.22,1.668-7.863,1.77c-23.667,0.906-47.339,1.646-71.011,2.447c-2.027,0.068-4.074,0.067-6.074,0.362
		c-2.915,0.43-5.926,5.303-4.468,7.868c2.644,4.655,5.661,9.136,8.882,13.419c8.128,10.813,16.641,21.344,24.588,32.284
		c2.297,3.161,4.106,7.253,4.439,11.066c0.242,2.758-1.725,6.331-3.793,8.509c-2.494,2.626-6.492,2.639-9.219,0.086
		c-3.385-3.17-6.498-6.78-9.064-10.642C307.503,344.601,302.817,336.51,291.558,329.459z"/>
	<path fill="#E6866E" d="M492.658,378.404c18.819,1.268,35.687,10.646,46.112,30.478c5.363,10.203,5.744,20.687,1.795,31.35
		c-1.402,3.792-3.189,7.474-5.121,11.032c-8.952,16.497-34.223,37.027-50.721,41.356c-21.426,5.622-40.9-3.021-51.021-22.641
		c-12.591-24.411-8.61-53.323,10.099-73.347C454.644,385.028,471.712,378.22,492.658,378.404z"/>
	<path fill="#E6866E" d="M376.173,121.691c-35.219-0.67-57.473-27.101-51.395-61.033c4.446-24.825,18.99-43.086,40.006-56.202
		c4.368-2.726,10.199-4.593,15.287-4.448c37.678,1.077,54.088,28.541,50.967,59.225c-0.859,8.447-4.99,16.864-8.959,24.608
		c-3.947,7.699-9.174,14.72-13.431,22.377C401.788,118.56,389.319,122.415,376.173,121.691z"/>
	<path fill="#E6866E" d="M588.76,219.674c0.028,18.313-7.235,32.396-18.276,44.954c-4.857,5.524-9.766,11.035-14.183,16.904
		c-3.036,4.034-6.562,6.317-11.538,7.304c-35.26,6.985-74.753-18.789-64.474-66.541c4.306-19.999,16.218-34.886,34.021-45.781
		C543.144,158.871,591.359,179.525,588.76,219.674z"/>
	<path fill="#E6866E" d="M302.413,597.809c-4.053,0-8.105-0.066-12.156,0.011c-25.986,0.498-50.241-20.782-55.272-50.047
		c-3.235-18.823-0.441-36.25,13.279-50.823c7.767-8.249,16.831-12.634,28.399-13.372c32.514-2.073,70.428,18.901,78.37,64.602
		c2.461,14.159-2.398,26.854-11.596,37.497c-5.819,6.734-13.388,11.378-22.806,11.582c-6.07,0.131-12.145,0.024-18.217,0.024
		C302.415,597.458,302.413,597.633,302.413,597.809z"/>
	<path fill="#E6866E" d="M116.012,77.671c0.469-27.41,18.808-49.973,43.327-53.307c29.98-4.076,64.729,20.632,68.703,50.425
		c2.602,19.49-3.527,37.47-16.516,52.577c-5.108,5.942-11.945,9.243-19.87,7.842c-7.605-1.344-14.591,0.136-21.915,1.816
		c-18.153,4.164-33.729-2.738-43.057-18.759C121.134,108.734,114.591,92.79,116.012,77.671z"/>
	<path fill="#E6866E" d="M54.894,171.316c15.401,0.723,29.057,6.25,40.68,16.211c6.781,5.811,11.076,13.598,13.743,22.202
		c6.114,19.727-3.465,51.711-19.21,65.154c-4.629,3.952-9.424,5.25-14.953,3.205c-5.207-1.926-10.168-2.366-15.819-1.422
		c-21.069,3.521-42.47-6.451-51.688-23.862c-13.566-25.622-7.609-47.004,6.391-62.063C25.042,178.904,37.815,170.605,54.894,171.316
		z"/>
	<path fill="#E6866E" d="M5.318,439.287c-0.411-19.642,8.079-35.246,22.112-48.227c7.877-7.287,17.301-10.313,28.009-9.307
		c25.461,2.391,41.679,17.581,53.359,38.808c10.367,18.837,8.144,38.342,0.03,56.783c-6.388,14.521-19.033,22.673-35.471,23.03
		c-5.361,0.116-10.839-0.652-16.108-1.756c-10.94-2.29-38.166-21.394-44.572-30.387C6.435,459.468,5.151,449.59,5.318,439.287z"/>
</g>
</svg>
